<?xml version="1.0" encoding="utf-8" standalone="no"?>
<!DOCTYPE svg PUBLIC "-//W3C//DTD SVG 1.1//EN"
  "http://www.w3.org/Graphics/SVG/1.1/DTD/svg11.dtd">
<svg xmlns:xlink="http://www.w3.org/1999/xlink" width="818.991375pt" height="510.305pt" viewBox="0 0 818.991375 510.305" xmlns="http://www.w3.org/2000/svg" version="1.1">
 <metadata>
  <rdf:RDF xmlns:dc="http://purl.org/dc/elements/1.1/" xmlns:cc="http://creativecommons.org/ns#" xmlns:rdf="http://www.w3.org/1999/02/22-rdf-syntax-ns#">
   <cc:Work>
    <dc:type rdf:resource="http://purl.org/dc/dcmitype/StillImage"/>
    <dc:date>2026-01-13T21:25:58.204473</dc:date>
    <dc:format>image/svg+xml</dc:format>
    <dc:creator>
     <cc:Agent>
      <dc:title>Matplotlib v3.9.4, https://matplotlib.org/</dc:title>
     </cc:Agent>
    </dc:creator>
   </cc:Work>
  </rdf:RDF>
 </metadata>
 <defs>
  <style type="text/css">*{stroke-linejoin: round; stroke-linecap: butt}</style>
 </defs>
 <g id="figure_1">
  <g id="patch_1">
   <path d="M 0 510.305 
L 818.991375 510.305 
L 818.991375 0 
L 0 0 
z
" style="fill: #ffffff"/>
  </g>
  <g id="axes_1">
   <g id="patch_2">
    <path d="M 47.6525 468.8775 
L 717.2525 468.8775 
L 717.2525 25.3575 
L 47.6525 25.3575 
z
" style="fill: #ffffff"/>
   </g>
   <g id="matplotlib.axis_1">
    <g id="xtick_1">
     <g id="line2d_1">
      <path d="M 145.725227 468.8775 
L 145.725227 25.3575 
" clip-path="url(#pf3c7c3bc21)" style="fill: none; stroke-dasharray: 2.96,1.28; stroke-dashoffset: 0; stroke: #b0b0b0; stroke-opacity: 0.7; stroke-width: 0.8"/>
     </g>
     <g id="line2d_2">
      <defs>
       <path id="md6567ca823" d="M 0 0 
L 0 3.5 
" style="stroke: #000000; stroke-width: 0.8"/>
      </defs>
      <g>
       <use xlink:href="#md6567ca823" x="145.725227" y="468.8775" style="stroke: #000000; stroke-width: 0.8"/>
      </g>
     </g>
     <g id="text_1">
      <!-- 2 -->
      <g transform="translate(142.543977 483.475937) scale(0.1 -0.1)">
       <defs>
        <path id="DejaVuSans-32" d="M 1228 531 
L 3431 531 
L 3431 0 
L 469 0 
L 469 531 
Q 828 903 1448 1529 
Q 2069 2156 2228 2338 
Q 2531 2678 2651 2914 
Q 2772 3150 2772 3378 
Q 2772 3750 2511 3984 
Q 2250 4219 1831 4219 
Q 1534 4219 1204 4116 
Q 875 4013 500 3803 
L 500 4441 
Q 881 4594 1212 4672 
Q 1544 4750 1819 4750 
Q 2544 4750 2975 4387 
Q 3406 4025 3406 3419 
Q 3406 3131 3298 2873 
Q 3191 2616 2906 2266 
Q 2828 2175 2409 1742 
Q 1991 1309 1228 531 
z
" transform="scale(0.015625)"/>
       </defs>
       <use xlink:href="#DejaVuSans-32"/>
      </g>
     </g>
    </g>
    <g id="xtick_2">
     <g id="line2d_3">
      <path d="M 280.997955 468.8775 
L 280.997955 25.3575 
" clip-path="url(#pf3c7c3bc21)" style="fill: none; stroke-dasharray: 2.96,1.28; stroke-dashoffset: 0; stroke: #b0b0b0; stroke-opacity: 0.7; stroke-width: 0.8"/>
     </g>
     <g id="line2d_4">
      <g>
       <use xlink:href="#md6567ca823" x="280.997955" y="468.8775" style="stroke: #000000; stroke-width: 0.8"/>
      </g>
     </g>
     <g id="text_2">
      <!-- 4 -->
      <g transform="translate(277.816705 483.475937) scale(0.1 -0.1)">
       <defs>
        <path id="DejaVuSans-34" d="M 2419 4116 
L 825 1625 
L 2419 1625 
L 2419 4116 
z
M 2253 4666 
L 3047 4666 
L 3047 1625 
L 3713 1625 
L 3713 1100 
L 3047 1100 
L 3047 0 
L 2419 0 
L 2419 1100 
L 313 1100 
L 313 1709 
L 2253 4666 
z
" transform="scale(0.015625)"/>
       </defs>
       <use xlink:href="#DejaVuSans-34"/>
      </g>
     </g>
    </g>
    <g id="xtick_3">
     <g id="line2d_5">
      <path d="M 416.270682 468.8775 
L 416.270682 25.3575 
" clip-path="url(#pf3c7c3bc21)" style="fill: none; stroke-dasharray: 2.96,1.28; stroke-dashoffset: 0; stroke: #b0b0b0; stroke-opacity: 0.7; stroke-width: 0.8"/>
     </g>
     <g id="line2d_6">
      <g>
       <use xlink:href="#md6567ca823" x="416.270682" y="468.8775" style="stroke: #000000; stroke-width: 0.8"/>
      </g>
     </g>
     <g id="text_3">
      <!-- 6 -->
      <g transform="translate(413.089432 483.475937) scale(0.1 -0.1)">
       <defs>
        <path id="DejaVuSans-36" d="M 2113 2584 
Q 1688 2584 1439 2293 
Q 1191 2003 1191 1497 
Q 1191 994 1439 701 
Q 1688 409 2113 409 
Q 2538 409 2786 701 
Q 3034 994 3034 1497 
Q 3034 2003 2786 2293 
Q 2538 2584 2113 2584 
z
M 3366 4563 
L 3366 3988 
Q 3128 4100 2886 4159 
Q 2644 4219 2406 4219 
Q 1781 4219 1451 3797 
Q 1122 3375 1075 2522 
Q 1259 2794 1537 2939 
Q 1816 3084 2150 3084 
Q 2853 3084 3261 2657 
Q 3669 2231 3669 1497 
Q 3669 778 3244 343 
Q 2819 -91 2113 -91 
Q 1303 -91 875 529 
Q 447 1150 447 2328 
Q 447 3434 972 4092 
Q 1497 4750 2381 4750 
Q 2619 4750 2861 4703 
Q 3103 4656 3366 4563 
z
" transform="scale(0.015625)"/>
       </defs>
       <use xlink:href="#DejaVuSans-36"/>
      </g>
     </g>
    </g>
    <g id="xtick_4">
     <g id="line2d_7">
      <path d="M 551.543409 468.8775 
L 551.543409 25.3575 
" clip-path="url(#pf3c7c3bc21)" style="fill: none; stroke-dasharray: 2.96,1.28; stroke-dashoffset: 0; stroke: #b0b0b0; stroke-opacity: 0.7; stroke-width: 0.8"/>
     </g>
     <g id="line2d_8">
      <g>
       <use xlink:href="#md6567ca823" x="551.543409" y="468.8775" style="stroke: #000000; stroke-width: 0.8"/>
      </g>
     </g>
     <g id="text_4">
      <!-- 8 -->
      <g transform="translate(548.362159 483.475937) scale(0.1 -0.1)">
       <defs>
        <path id="DejaVuSans-38" d="M 2034 2216 
Q 1584 2216 1326 1975 
Q 1069 1734 1069 1313 
Q 1069 891 1326 650 
Q 1584 409 2034 409 
Q 2484 409 2743 651 
Q 3003 894 3003 1313 
Q 3003 1734 2745 1975 
Q 2488 2216 2034 2216 
z
M 1403 2484 
Q 997 2584 770 2862 
Q 544 3141 544 3541 
Q 544 4100 942 4425 
Q 1341 4750 2034 4750 
Q 2731 4750 3128 4425 
Q 3525 4100 3525 3541 
Q 3525 3141 3298 2862 
Q 3072 2584 2669 2484 
Q 3125 2378 3379 2068 
Q 3634 1759 3634 1313 
Q 3634 634 3220 271 
Q 2806 -91 2034 -91 
Q 1263 -91 848 271 
Q 434 634 434 1313 
Q 434 1759 690 2068 
Q 947 2378 1403 2484 
z
M 1172 3481 
Q 1172 3119 1398 2916 
Q 1625 2713 2034 2713 
Q 2441 2713 2670 2916 
Q 2900 3119 2900 3481 
Q 2900 3844 2670 4047 
Q 2441 4250 2034 4250 
Q 1625 4250 1398 4047 
Q 1172 3844 1172 3481 
z
" transform="scale(0.015625)"/>
       </defs>
       <use xlink:href="#DejaVuSans-38"/>
      </g>
     </g>
    </g>
    <g id="xtick_5">
     <g id="line2d_9">
      <path d="M 686.816136 468.8775 
L 686.816136 25.3575 
" clip-path="url(#pf3c7c3bc21)" style="fill: none; stroke-dasharray: 2.96,1.28; stroke-dashoffset: 0; stroke: #b0b0b0; stroke-opacity: 0.7; stroke-width: 0.8"/>
     </g>
     <g id="line2d_10">
      <g>
       <use xlink:href="#md6567ca823" x="686.816136" y="468.8775" style="stroke: #000000; stroke-width: 0.8"/>
      </g>
     </g>
     <g id="text_5">
      <!-- 10 -->
      <g transform="translate(680.453636 483.475937) scale(0.1 -0.1)">
       <defs>
        <path id="DejaVuSans-31" d="M 794 531 
L 1825 531 
L 1825 4091 
L 703 3866 
L 703 4441 
L 1819 4666 
L 2450 4666 
L 2450 531 
L 3481 531 
L 3481 0 
L 794 0 
L 794 531 
z
" transform="scale(0.015625)"/>
        <path id="DejaVuSans-30" d="M 2034 4250 
Q 1547 4250 1301 3770 
Q 1056 3291 1056 2328 
Q 1056 1369 1301 889 
Q 1547 409 2034 409 
Q 2525 409 2770 889 
Q 3016 1369 3016 2328 
Q 3016 3291 2770 3770 
Q 2525 4250 2034 4250 
z
M 2034 4750 
Q 2819 4750 3233 4129 
Q 3647 3509 3647 2328 
Q 3647 1150 3233 529 
Q 2819 -91 2034 -91 
Q 1250 -91 836 529 
Q 422 1150 422 2328 
Q 422 3509 836 4129 
Q 1250 4750 2034 4750 
z
" transform="scale(0.015625)"/>
       </defs>
       <use xlink:href="#DejaVuSans-31"/>
       <use xlink:href="#DejaVuSans-30" x="63.623047"/>
      </g>
     </g>
    </g>
    <g id="text_6">
     <!-- Gaussian Blur Sigma (std) -->
     <g transform="translate(291.366094 500.193437) scale(0.14 -0.14)">
      <defs>
       <path id="DejaVuSans-47" d="M 3809 666 
L 3809 1919 
L 2778 1919 
L 2778 2438 
L 4434 2438 
L 4434 434 
Q 4069 175 3628 42 
Q 3188 -91 2688 -91 
Q 1594 -91 976 548 
Q 359 1188 359 2328 
Q 359 3472 976 4111 
Q 1594 4750 2688 4750 
Q 3144 4750 3555 4637 
Q 3966 4525 4313 4306 
L 4313 3634 
Q 3963 3931 3569 4081 
Q 3175 4231 2741 4231 
Q 1884 4231 1454 3753 
Q 1025 3275 1025 2328 
Q 1025 1384 1454 906 
Q 1884 428 2741 428 
Q 3075 428 3337 486 
Q 3600 544 3809 666 
z
" transform="scale(0.015625)"/>
       <path id="DejaVuSans-61" d="M 2194 1759 
Q 1497 1759 1228 1600 
Q 959 1441 959 1056 
Q 959 750 1161 570 
Q 1363 391 1709 391 
Q 2188 391 2477 730 
Q 2766 1069 2766 1631 
L 2766 1759 
L 2194 1759 
z
M 3341 1997 
L 3341 0 
L 2766 0 
L 2766 531 
Q 2569 213 2275 61 
Q 1981 -91 1556 -91 
Q 1019 -91 701 211 
Q 384 513 384 1019 
Q 384 1609 779 1909 
Q 1175 2209 1959 2209 
L 2766 2209 
L 2766 2266 
Q 2766 2663 2505 2880 
Q 2244 3097 1772 3097 
Q 1472 3097 1187 3025 
Q 903 2953 641 2809 
L 641 3341 
Q 956 3463 1253 3523 
Q 1550 3584 1831 3584 
Q 2591 3584 2966 3190 
Q 3341 2797 3341 1997 
z
" transform="scale(0.015625)"/>
       <path id="DejaVuSans-75" d="M 544 1381 
L 544 3500 
L 1119 3500 
L 1119 1403 
Q 1119 906 1312 657 
Q 1506 409 1894 409 
Q 2359 409 2629 706 
Q 2900 1003 2900 1516 
L 2900 3500 
L 3475 3500 
L 3475 0 
L 2900 0 
L 2900 538 
Q 2691 219 2414 64 
Q 2138 -91 1772 -91 
Q 1169 -91 856 284 
Q 544 659 544 1381 
z
M 1991 3584 
L 1991 3584 
z
" transform="scale(0.015625)"/>
       <path id="DejaVuSans-73" d="M 2834 3397 
L 2834 2853 
Q 2591 2978 2328 3040 
Q 2066 3103 1784 3103 
Q 1356 3103 1142 2972 
Q 928 2841 928 2578 
Q 928 2378 1081 2264 
Q 1234 2150 1697 2047 
L 1894 2003 
Q 2506 1872 2764 1633 
Q 3022 1394 3022 966 
Q 3022 478 2636 193 
Q 2250 -91 1575 -91 
Q 1294 -91 989 -36 
Q 684 19 347 128 
L 347 722 
Q 666 556 975 473 
Q 1284 391 1588 391 
Q 1994 391 2212 530 
Q 2431 669 2431 922 
Q 2431 1156 2273 1281 
Q 2116 1406 1581 1522 
L 1381 1569 
Q 847 1681 609 1914 
Q 372 2147 372 2553 
Q 372 3047 722 3315 
Q 1072 3584 1716 3584 
Q 2034 3584 2315 3537 
Q 2597 3491 2834 3397 
z
" transform="scale(0.015625)"/>
       <path id="DejaVuSans-69" d="M 603 3500 
L 1178 3500 
L 1178 0 
L 603 0 
L 603 3500 
z
M 603 4863 
L 1178 4863 
L 1178 4134 
L 603 4134 
L 603 4863 
z
" transform="scale(0.015625)"/>
       <path id="DejaVuSans-6e" d="M 3513 2113 
L 3513 0 
L 2938 0 
L 2938 2094 
Q 2938 2591 2744 2837 
Q 2550 3084 2163 3084 
Q 1697 3084 1428 2787 
Q 1159 2491 1159 1978 
L 1159 0 
L 581 0 
L 581 3500 
L 1159 3500 
L 1159 2956 
Q 1366 3272 1645 3428 
Q 1925 3584 2291 3584 
Q 2894 3584 3203 3211 
Q 3513 2838 3513 2113 
z
" transform="scale(0.015625)"/>
       <path id="DejaVuSans-20" transform="scale(0.015625)"/>
       <path id="DejaVuSans-42" d="M 1259 2228 
L 1259 519 
L 2272 519 
Q 2781 519 3026 730 
Q 3272 941 3272 1375 
Q 3272 1813 3026 2020 
Q 2781 2228 2272 2228 
L 1259 2228 
z
M 1259 4147 
L 1259 2741 
L 2194 2741 
Q 2656 2741 2882 2914 
Q 3109 3088 3109 3444 
Q 3109 3797 2882 3972 
Q 2656 4147 2194 4147 
L 1259 4147 
z
M 628 4666 
L 2241 4666 
Q 2963 4666 3353 4366 
Q 3744 4066 3744 3513 
Q 3744 3084 3544 2831 
Q 3344 2578 2956 2516 
Q 3422 2416 3680 2098 
Q 3938 1781 3938 1306 
Q 3938 681 3513 340 
Q 3088 0 2303 0 
L 628 0 
L 628 4666 
z
" transform="scale(0.015625)"/>
       <path id="DejaVuSans-6c" d="M 603 4863 
L 1178 4863 
L 1178 0 
L 603 0 
L 603 4863 
z
" transform="scale(0.015625)"/>
       <path id="DejaVuSans-72" d="M 2631 2963 
Q 2534 3019 2420 3045 
Q 2306 3072 2169 3072 
Q 1681 3072 1420 2755 
Q 1159 2438 1159 1844 
L 1159 0 
L 581 0 
L 581 3500 
L 1159 3500 
L 1159 2956 
Q 1341 3275 1631 3429 
Q 1922 3584 2338 3584 
Q 2397 3584 2469 3576 
Q 2541 3569 2628 3553 
L 2631 2963 
z
" transform="scale(0.015625)"/>
       <path id="DejaVuSans-53" d="M 3425 4513 
L 3425 3897 
Q 3066 4069 2747 4153 
Q 2428 4238 2131 4238 
Q 1616 4238 1336 4038 
Q 1056 3838 1056 3469 
Q 1056 3159 1242 3001 
Q 1428 2844 1947 2747 
L 2328 2669 
Q 3034 2534 3370 2195 
Q 3706 1856 3706 1288 
Q 3706 609 3251 259 
Q 2797 -91 1919 -91 
Q 1588 -91 1214 -16 
Q 841 59 441 206 
L 441 856 
Q 825 641 1194 531 
Q 1563 422 1919 422 
Q 2459 422 2753 634 
Q 3047 847 3047 1241 
Q 3047 1584 2836 1778 
Q 2625 1972 2144 2069 
L 1759 2144 
Q 1053 2284 737 2584 
Q 422 2884 422 3419 
Q 422 4038 858 4394 
Q 1294 4750 2059 4750 
Q 2388 4750 2728 4690 
Q 3069 4631 3425 4513 
z
" transform="scale(0.015625)"/>
       <path id="DejaVuSans-67" d="M 2906 1791 
Q 2906 2416 2648 2759 
Q 2391 3103 1925 3103 
Q 1463 3103 1205 2759 
Q 947 2416 947 1791 
Q 947 1169 1205 825 
Q 1463 481 1925 481 
Q 2391 481 2648 825 
Q 2906 1169 2906 1791 
z
M 3481 434 
Q 3481 -459 3084 -895 
Q 2688 -1331 1869 -1331 
Q 1566 -1331 1297 -1286 
Q 1028 -1241 775 -1147 
L 775 -588 
Q 1028 -725 1275 -790 
Q 1522 -856 1778 -856 
Q 2344 -856 2625 -561 
Q 2906 -266 2906 331 
L 2906 616 
Q 2728 306 2450 153 
Q 2172 0 1784 0 
Q 1141 0 747 490 
Q 353 981 353 1791 
Q 353 2603 747 3093 
Q 1141 3584 1784 3584 
Q 2172 3584 2450 3431 
Q 2728 3278 2906 2969 
L 2906 3500 
L 3481 3500 
L 3481 434 
z
" transform="scale(0.015625)"/>
       <path id="DejaVuSans-6d" d="M 3328 2828 
Q 3544 3216 3844 3400 
Q 4144 3584 4550 3584 
Q 5097 3584 5394 3201 
Q 5691 2819 5691 2113 
L 5691 0 
L 5113 0 
L 5113 2094 
Q 5113 2597 4934 2840 
Q 4756 3084 4391 3084 
Q 3944 3084 3684 2787 
Q 3425 2491 3425 1978 
L 3425 0 
L 2847 0 
L 2847 2094 
Q 2847 2600 2669 2842 
Q 2491 3084 2119 3084 
Q 1678 3084 1418 2786 
Q 1159 2488 1159 1978 
L 1159 0 
L 581 0 
L 581 3500 
L 1159 3500 
L 1159 2956 
Q 1356 3278 1631 3431 
Q 1906 3584 2284 3584 
Q 2666 3584 2933 3390 
Q 3200 3197 3328 2828 
z
" transform="scale(0.015625)"/>
       <path id="DejaVuSans-28" d="M 1984 4856 
Q 1566 4138 1362 3434 
Q 1159 2731 1159 2009 
Q 1159 1288 1364 580 
Q 1569 -128 1984 -844 
L 1484 -844 
Q 1016 -109 783 600 
Q 550 1309 550 2009 
Q 550 2706 781 3412 
Q 1013 4119 1484 4856 
L 1984 4856 
z
" transform="scale(0.015625)"/>
       <path id="DejaVuSans-74" d="M 1172 4494 
L 1172 3500 
L 2356 3500 
L 2356 3053 
L 1172 3053 
L 1172 1153 
Q 1172 725 1289 603 
Q 1406 481 1766 481 
L 2356 481 
L 2356 0 
L 1766 0 
Q 1100 0 847 248 
Q 594 497 594 1153 
L 594 3053 
L 172 3053 
L 172 3500 
L 594 3500 
L 594 4494 
L 1172 4494 
z
" transform="scale(0.015625)"/>
       <path id="DejaVuSans-64" d="M 2906 2969 
L 2906 4863 
L 3481 4863 
L 3481 0 
L 2906 0 
L 2906 525 
Q 2725 213 2448 61 
Q 2172 -91 1784 -91 
Q 1150 -91 751 415 
Q 353 922 353 1747 
Q 353 2572 751 3078 
Q 1150 3584 1784 3584 
Q 2172 3584 2448 3432 
Q 2725 3281 2906 2969 
z
M 947 1747 
Q 947 1113 1208 752 
Q 1469 391 1925 391 
Q 2381 391 2643 752 
Q 2906 1113 2906 1747 
Q 2906 2381 2643 2742 
Q 2381 3103 1925 3103 
Q 1469 3103 1208 2742 
Q 947 2381 947 1747 
z
" transform="scale(0.015625)"/>
       <path id="DejaVuSans-29" d="M 513 4856 
L 1013 4856 
Q 1481 4119 1714 3412 
Q 1947 2706 1947 2009 
Q 1947 1309 1714 600 
Q 1481 -109 1013 -844 
L 513 -844 
Q 928 -128 1133 580 
Q 1338 1288 1338 2009 
Q 1338 2731 1133 3434 
Q 928 4138 513 4856 
z
" transform="scale(0.015625)"/>
      </defs>
      <use xlink:href="#DejaVuSans-47"/>
      <use xlink:href="#DejaVuSans-61" x="77.490234"/>
      <use xlink:href="#DejaVuSans-75" x="138.769531"/>
      <use xlink:href="#DejaVuSans-73" x="202.148438"/>
      <use xlink:href="#DejaVuSans-73" x="254.248047"/>
      <use xlink:href="#DejaVuSans-69" x="306.347656"/>
      <use xlink:href="#DejaVuSans-61" x="334.130859"/>
      <use xlink:href="#DejaVuSans-6e" x="395.410156"/>
      <use xlink:href="#DejaVuSans-20" x="458.789062"/>
      <use xlink:href="#DejaVuSans-42" x="490.576172"/>
      <use xlink:href="#DejaVuSans-6c" x="559.179688"/>
      <use xlink:href="#DejaVuSans-75" x="586.962891"/>
      <use xlink:href="#DejaVuSans-72" x="650.341797"/>
      <use xlink:href="#DejaVuSans-20" x="691.455078"/>
      <use xlink:href="#DejaVuSans-53" x="723.242188"/>
      <use xlink:href="#DejaVuSans-69" x="786.71875"/>
      <use xlink:href="#DejaVuSans-67" x="814.501953"/>
      <use xlink:href="#DejaVuSans-6d" x="877.978516"/>
      <use xlink:href="#DejaVuSans-61" x="975.390625"/>
      <use xlink:href="#DejaVuSans-20" x="1036.669922"/>
      <use xlink:href="#DejaVuSans-28" x="1068.457031"/>
      <use xlink:href="#DejaVuSans-73" x="1107.470703"/>
      <use xlink:href="#DejaVuSans-74" x="1159.570312"/>
      <use xlink:href="#DejaVuSans-64" x="1198.779297"/>
      <use xlink:href="#DejaVuSans-29" x="1262.255859"/>
     </g>
    </g>
   </g>
   <g id="matplotlib.axis_2">
    <g id="ytick_1">
     <g id="line2d_11">
      <path d="M 47.6525 448.7175 
L 717.2525 448.7175 
" clip-path="url(#pf3c7c3bc21)" style="fill: none; stroke-dasharray: 2.96,1.28; stroke-dashoffset: 0; stroke: #b0b0b0; stroke-opacity: 0.7; stroke-width: 0.8"/>
     </g>
     <g id="line2d_12">
      <defs>
       <path id="mca70b95b04" d="M 0 0 
L -3.5 0 
" style="stroke: #000000; stroke-width: 0.8"/>
      </defs>
      <g>
       <use xlink:href="#mca70b95b04" x="47.6525" y="448.7175" style="stroke: #000000; stroke-width: 0.8"/>
      </g>
     </g>
     <g id="text_7">
      <!-- 0.0 -->
      <g transform="translate(24.749375 452.516719) scale(0.1 -0.1)">
       <defs>
        <path id="DejaVuSans-2e" d="M 684 794 
L 1344 794 
L 1344 0 
L 684 0 
L 684 794 
z
" transform="scale(0.015625)"/>
       </defs>
       <use xlink:href="#DejaVuSans-30"/>
       <use xlink:href="#DejaVuSans-2e" x="63.623047"/>
       <use xlink:href="#DejaVuSans-30" x="95.410156"/>
      </g>
     </g>
    </g>
    <g id="ytick_2">
     <g id="line2d_13">
      <path d="M 47.6525 362.310281 
L 717.2525 362.310281 
" clip-path="url(#pf3c7c3bc21)" style="fill: none; stroke-dasharray: 2.96,1.28; stroke-dashoffset: 0; stroke: #b0b0b0; stroke-opacity: 0.7; stroke-width: 0.8"/>
     </g>
     <g id="line2d_14">
      <g>
       <use xlink:href="#mca70b95b04" x="47.6525" y="362.310281" style="stroke: #000000; stroke-width: 0.8"/>
      </g>
     </g>
     <g id="text_8">
      <!-- 0.2 -->
      <g transform="translate(24.749375 366.1095) scale(0.1 -0.1)">
       <use xlink:href="#DejaVuSans-30"/>
       <use xlink:href="#DejaVuSans-2e" x="63.623047"/>
       <use xlink:href="#DejaVuSans-32" x="95.410156"/>
      </g>
     </g>
    </g>
    <g id="ytick_3">
     <g id="line2d_15">
      <path d="M 47.6525 275.903062 
L 717.2525 275.903062 
" clip-path="url(#pf3c7c3bc21)" style="fill: none; stroke-dasharray: 2.96,1.28; stroke-dashoffset: 0; stroke: #b0b0b0; stroke-opacity: 0.7; stroke-width: 0.8"/>
     </g>
     <g id="line2d_16">
      <g>
       <use xlink:href="#mca70b95b04" x="47.6525" y="275.903062" style="stroke: #000000; stroke-width: 0.8"/>
      </g>
     </g>
     <g id="text_9">
      <!-- 0.4 -->
      <g transform="translate(24.749375 279.70228) scale(0.1 -0.1)">
       <use xlink:href="#DejaVuSans-30"/>
       <use xlink:href="#DejaVuSans-2e" x="63.623047"/>
       <use xlink:href="#DejaVuSans-34" x="95.410156"/>
      </g>
     </g>
    </g>
    <g id="ytick_4">
     <g id="line2d_17">
      <path d="M 47.6525 189.495842 
L 717.2525 189.495842 
" clip-path="url(#pf3c7c3bc21)" style="fill: none; stroke-dasharray: 2.96,1.28; stroke-dashoffset: 0; stroke: #b0b0b0; stroke-opacity: 0.7; stroke-width: 0.8"/>
     </g>
     <g id="line2d_18">
      <g>
       <use xlink:href="#mca70b95b04" x="47.6525" y="189.495842" style="stroke: #000000; stroke-width: 0.8"/>
      </g>
     </g>
     <g id="text_10">
      <!-- 0.6 -->
      <g transform="translate(24.749375 193.295061) scale(0.1 -0.1)">
       <use xlink:href="#DejaVuSans-30"/>
       <use xlink:href="#DejaVuSans-2e" x="63.623047"/>
       <use xlink:href="#DejaVuSans-36" x="95.410156"/>
      </g>
     </g>
    </g>
    <g id="ytick_5">
     <g id="line2d_19">
      <path d="M 47.6525 103.088623 
L 717.2525 103.088623 
" clip-path="url(#pf3c7c3bc21)" style="fill: none; stroke-dasharray: 2.96,1.28; stroke-dashoffset: 0; stroke: #b0b0b0; stroke-opacity: 0.7; stroke-width: 0.8"/>
     </g>
     <g id="line2d_20">
      <g>
       <use xlink:href="#mca70b95b04" x="47.6525" y="103.088623" style="stroke: #000000; stroke-width: 0.8"/>
      </g>
     </g>
     <g id="text_11">
      <!-- 0.8 -->
      <g transform="translate(24.749375 106.887842) scale(0.1 -0.1)">
       <use xlink:href="#DejaVuSans-30"/>
       <use xlink:href="#DejaVuSans-2e" x="63.623047"/>
       <use xlink:href="#DejaVuSans-38" x="95.410156"/>
      </g>
     </g>
    </g>
    <g id="text_12">
     <!-- F1 Score -->
     <g transform="translate(17.837812 277.425312) rotate(-90) scale(0.14 -0.14)">
      <defs>
       <path id="DejaVuSans-46" d="M 628 4666 
L 3309 4666 
L 3309 4134 
L 1259 4134 
L 1259 2759 
L 3109 2759 
L 3109 2228 
L 1259 2228 
L 1259 0 
L 628 0 
L 628 4666 
z
" transform="scale(0.015625)"/>
       <path id="DejaVuSans-63" d="M 3122 3366 
L 3122 2828 
Q 2878 2963 2633 3030 
Q 2388 3097 2138 3097 
Q 1578 3097 1268 2742 
Q 959 2388 959 1747 
Q 959 1106 1268 751 
Q 1578 397 2138 397 
Q 2388 397 2633 464 
Q 2878 531 3122 666 
L 3122 134 
Q 2881 22 2623 -34 
Q 2366 -91 2075 -91 
Q 1284 -91 818 406 
Q 353 903 353 1747 
Q 353 2603 823 3093 
Q 1294 3584 2113 3584 
Q 2378 3584 2631 3529 
Q 2884 3475 3122 3366 
z
" transform="scale(0.015625)"/>
       <path id="DejaVuSans-6f" d="M 1959 3097 
Q 1497 3097 1228 2736 
Q 959 2375 959 1747 
Q 959 1119 1226 758 
Q 1494 397 1959 397 
Q 2419 397 2687 759 
Q 2956 1122 2956 1747 
Q 2956 2369 2687 2733 
Q 2419 3097 1959 3097 
z
M 1959 3584 
Q 2709 3584 3137 3096 
Q 3566 2609 3566 1747 
Q 3566 888 3137 398 
Q 2709 -91 1959 -91 
Q 1206 -91 779 398 
Q 353 888 353 1747 
Q 353 2609 779 3096 
Q 1206 3584 1959 3584 
z
" transform="scale(0.015625)"/>
       <path id="DejaVuSans-65" d="M 3597 1894 
L 3597 1613 
L 953 1613 
Q 991 1019 1311 708 
Q 1631 397 2203 397 
Q 2534 397 2845 478 
Q 3156 559 3463 722 
L 3463 178 
Q 3153 47 2828 -22 
Q 2503 -91 2169 -91 
Q 1331 -91 842 396 
Q 353 884 353 1716 
Q 353 2575 817 3079 
Q 1281 3584 2069 3584 
Q 2775 3584 3186 3129 
Q 3597 2675 3597 1894 
z
M 3022 2063 
Q 3016 2534 2758 2815 
Q 2500 3097 2075 3097 
Q 1594 3097 1305 2825 
Q 1016 2553 972 2059 
L 3022 2063 
z
" transform="scale(0.015625)"/>
      </defs>
      <use xlink:href="#DejaVuSans-46"/>
      <use xlink:href="#DejaVuSans-31" x="57.519531"/>
      <use xlink:href="#DejaVuSans-20" x="121.142578"/>
      <use xlink:href="#DejaVuSans-53" x="152.929688"/>
      <use xlink:href="#DejaVuSans-63" x="216.40625"/>
      <use xlink:href="#DejaVuSans-6f" x="271.386719"/>
      <use xlink:href="#DejaVuSans-72" x="332.568359"/>
      <use xlink:href="#DejaVuSans-65" x="371.431641"/>
     </g>
    </g>
   </g>
   <g id="line2d_21">
    <path d="M 78.088864 103.150096 
L 145.725227 118.055536 
L 213.361591 157.852614 
L 280.997955 232.15431 
L 348.634318 330.666194 
L 416.270682 402.166288 
L 483.907045 430.631036 
L 551.543409 441.636345 
L 619.179773 446.310774 
L 686.816136 448.00137 
" clip-path="url(#pf3c7c3bc21)" style="fill: none; stroke: #1f77b4; stroke-width: 2; stroke-linecap: square"/>
    <defs>
     <path id="mc0d6a4d1ab" d="M 0 3 
C 0.795609 3 1.55874 2.683901 2.12132 2.12132 
C 2.683901 1.55874 3 0.795609 3 0 
C 3 -0.795609 2.683901 -1.55874 2.12132 -2.12132 
C 1.55874 -2.683901 0.795609 -3 0 -3 
C -0.795609 -3 -1.55874 -2.683901 -2.12132 -2.12132 
C -2.683901 -1.55874 -3 -0.795609 -3 0 
C -3 0.795609 -2.683901 1.55874 -2.12132 2.12132 
C -1.55874 2.683901 -0.795609 3 0 3 
z
" style="stroke: #1f77b4"/>
    </defs>
    <g clip-path="url(#pf3c7c3bc21)">
     <use xlink:href="#mc0d6a4d1ab" x="78.088864" y="103.150096" style="fill: #1f77b4; stroke: #1f77b4"/>
     <use xlink:href="#mc0d6a4d1ab" x="145.725227" y="118.055536" style="fill: #1f77b4; stroke: #1f77b4"/>
     <use xlink:href="#mc0d6a4d1ab" x="213.361591" y="157.852614" style="fill: #1f77b4; stroke: #1f77b4"/>
     <use xlink:href="#mc0d6a4d1ab" x="280.997955" y="232.15431" style="fill: #1f77b4; stroke: #1f77b4"/>
     <use xlink:href="#mc0d6a4d1ab" x="348.634318" y="330.666194" style="fill: #1f77b4; stroke: #1f77b4"/>
     <use xlink:href="#mc0d6a4d1ab" x="416.270682" y="402.166288" style="fill: #1f77b4; stroke: #1f77b4"/>
     <use xlink:href="#mc0d6a4d1ab" x="483.907045" y="430.631036" style="fill: #1f77b4; stroke: #1f77b4"/>
     <use xlink:href="#mc0d6a4d1ab" x="551.543409" y="441.636345" style="fill: #1f77b4; stroke: #1f77b4"/>
     <use xlink:href="#mc0d6a4d1ab" x="619.179773" y="446.310774" style="fill: #1f77b4; stroke: #1f77b4"/>
     <use xlink:href="#mc0d6a4d1ab" x="686.816136" y="448.00137" style="fill: #1f77b4; stroke: #1f77b4"/>
    </g>
   </g>
   <g id="line2d_22">
    <path d="M 78.088864 45.5175 
L 145.725227 55.766012 
L 213.361591 86.260148 
L 280.997955 142.475395 
L 348.634318 234.073686 
L 416.270682 339.664857 
L 483.907045 399.852694 
L 551.543409 428.276091 
L 619.179773 441.479664 
L 686.816136 446.50874 
" clip-path="url(#pf3c7c3bc21)" style="fill: none; stroke: #ff7f0e; stroke-width: 2; stroke-linecap: square"/>
    <defs>
     <path id="m7326d1f5db" d="M 0 3 
C 0.795609 3 1.55874 2.683901 2.12132 2.12132 
C 2.683901 1.55874 3 0.795609 3 0 
C 3 -0.795609 2.683901 -1.55874 2.12132 -2.12132 
C 1.55874 -2.683901 0.795609 -3 0 -3 
C -0.795609 -3 -1.55874 -2.683901 -2.12132 -2.12132 
C -2.683901 -1.55874 -3 -0.795609 -3 0 
C -3 0.795609 -2.683901 1.55874 -2.12132 2.12132 
C -1.55874 2.683901 -0.795609 3 0 3 
z
" style="stroke: #ff7f0e"/>
    </defs>
    <g clip-path="url(#pf3c7c3bc21)">
     <use xlink:href="#m7326d1f5db" x="78.088864" y="45.5175" style="fill: #ff7f0e; stroke: #ff7f0e"/>
     <use xlink:href="#m7326d1f5db" x="145.725227" y="55.766012" style="fill: #ff7f0e; stroke: #ff7f0e"/>
     <use xlink:href="#m7326d1f5db" x="213.361591" y="86.260148" style="fill: #ff7f0e; stroke: #ff7f0e"/>
     <use xlink:href="#m7326d1f5db" x="280.997955" y="142.475395" style="fill: #ff7f0e; stroke: #ff7f0e"/>
     <use xlink:href="#m7326d1f5db" x="348.634318" y="234.073686" style="fill: #ff7f0e; stroke: #ff7f0e"/>
     <use xlink:href="#m7326d1f5db" x="416.270682" y="339.664857" style="fill: #ff7f0e; stroke: #ff7f0e"/>
     <use xlink:href="#m7326d1f5db" x="483.907045" y="399.852694" style="fill: #ff7f0e; stroke: #ff7f0e"/>
     <use xlink:href="#m7326d1f5db" x="551.543409" y="428.276091" style="fill: #ff7f0e; stroke: #ff7f0e"/>
     <use xlink:href="#m7326d1f5db" x="619.179773" y="441.479664" style="fill: #ff7f0e; stroke: #ff7f0e"/>
     <use xlink:href="#m7326d1f5db" x="686.816136" y="446.50874" style="fill: #ff7f0e; stroke: #ff7f0e"/>
    </g>
   </g>
   <g id="line2d_23">
    <path d="M 78.088864 107.40011 
L 145.725227 121.935506 
L 213.361591 162.526067 
L 280.997955 242.547894 
L 348.634318 355.726823 
L 416.270682 428.940355 
L 483.907045 444.881271 
L 551.543409 447.854476 
L 619.179773 448.624941 
L 686.816136 448.686645 
" clip-path="url(#pf3c7c3bc21)" style="fill: none; stroke: #2ca02c; stroke-width: 2; stroke-linecap: square"/>
    <defs>
     <path id="m31d8fa7fb5" d="M 0 3 
C 0.795609 3 1.55874 2.683901 2.12132 2.12132 
C 2.683901 1.55874 3 0.795609 3 0 
C 3 -0.795609 2.683901 -1.55874 2.12132 -2.12132 
C 1.55874 -2.683901 0.795609 -3 0 -3 
C -0.795609 -3 -1.55874 -2.683901 -2.12132 -2.12132 
C -2.683901 -1.55874 -3 -0.795609 -3 0 
C -3 0.795609 -2.683901 1.55874 -2.12132 2.12132 
C -1.55874 2.683901 -0.795609 3 0 3 
z
" style="stroke: #2ca02c"/>
    </defs>
    <g clip-path="url(#pf3c7c3bc21)">
     <use xlink:href="#m31d8fa7fb5" x="78.088864" y="107.40011" style="fill: #2ca02c; stroke: #2ca02c"/>
     <use xlink:href="#m31d8fa7fb5" x="145.725227" y="121.935506" style="fill: #2ca02c; stroke: #2ca02c"/>
     <use xlink:href="#m31d8fa7fb5" x="213.361591" y="162.526067" style="fill: #2ca02c; stroke: #2ca02c"/>
     <use xlink:href="#m31d8fa7fb5" x="280.997955" y="242.547894" style="fill: #2ca02c; stroke: #2ca02c"/>
     <use xlink:href="#m31d8fa7fb5" x="348.634318" y="355.726823" style="fill: #2ca02c; stroke: #2ca02c"/>
     <use xlink:href="#m31d8fa7fb5" x="416.270682" y="428.940355" style="fill: #2ca02c; stroke: #2ca02c"/>
     <use xlink:href="#m31d8fa7fb5" x="483.907045" y="444.881271" style="fill: #2ca02c; stroke: #2ca02c"/>
     <use xlink:href="#m31d8fa7fb5" x="551.543409" y="447.854476" style="fill: #2ca02c; stroke: #2ca02c"/>
     <use xlink:href="#m31d8fa7fb5" x="619.179773" y="448.624941" style="fill: #2ca02c; stroke: #2ca02c"/>
     <use xlink:href="#m31d8fa7fb5" x="686.816136" y="448.686645" style="fill: #2ca02c; stroke: #2ca02c"/>
    </g>
   </g>
   <g id="line2d_24">
    <path d="M 78.088864 141.714369 
L 145.725227 172.082527 
L 213.361591 240.712752 
L 280.997955 332.158817 
L 348.634318 415.777732 
L 416.270682 442.140838 
L 483.907045 448.205609 
L 551.543409 448.7175 
L 619.179773 448.7175 
L 686.816136 448.7175 
" clip-path="url(#pf3c7c3bc21)" style="fill: none; stroke: #d62728; stroke-width: 2; stroke-linecap: square"/>
    <defs>
     <path id="m04e51f9aa2" d="M 0 3 
C 0.795609 3 1.55874 2.683901 2.12132 2.12132 
C 2.683901 1.55874 3 0.795609 3 0 
C 3 -0.795609 2.683901 -1.55874 2.12132 -2.12132 
C 1.55874 -2.683901 0.795609 -3 0 -3 
C -0.795609 -3 -1.55874 -2.683901 -2.12132 -2.12132 
C -2.683901 -1.55874 -3 -0.795609 -3 0 
C -3 0.795609 -2.683901 1.55874 -2.12132 2.12132 
C -1.55874 2.683901 -0.795609 3 0 3 
z
" style="stroke: #d62728"/>
    </defs>
    <g clip-path="url(#pf3c7c3bc21)">
     <use xlink:href="#m04e51f9aa2" x="78.088864" y="141.714369" style="fill: #d62728; stroke: #d62728"/>
     <use xlink:href="#m04e51f9aa2" x="145.725227" y="172.082527" style="fill: #d62728; stroke: #d62728"/>
     <use xlink:href="#m04e51f9aa2" x="213.361591" y="240.712752" style="fill: #d62728; stroke: #d62728"/>
     <use xlink:href="#m04e51f9aa2" x="280.997955" y="332.158817" style="fill: #d62728; stroke: #d62728"/>
     <use xlink:href="#m04e51f9aa2" x="348.634318" y="415.777732" style="fill: #d62728; stroke: #d62728"/>
     <use xlink:href="#m04e51f9aa2" x="416.270682" y="442.140838" style="fill: #d62728; stroke: #d62728"/>
     <use xlink:href="#m04e51f9aa2" x="483.907045" y="448.205609" style="fill: #d62728; stroke: #d62728"/>
     <use xlink:href="#m04e51f9aa2" x="551.543409" y="448.7175" style="fill: #d62728; stroke: #d62728"/>
     <use xlink:href="#m04e51f9aa2" x="619.179773" y="448.7175" style="fill: #d62728; stroke: #d62728"/>
     <use xlink:href="#m04e51f9aa2" x="686.816136" y="448.7175" style="fill: #d62728; stroke: #d62728"/>
    </g>
   </g>
   <g id="line2d_25">
    <path d="M 78.088864 90.119437 
L 145.725227 111.136687 
L 213.361591 176.615611 
L 280.997955 275.259776 
L 348.634318 395.758237 
L 416.270682 435.433165 
L 483.907045 448.117033 
L 551.543409 448.7175 
L 619.179773 448.7175 
L 686.816136 448.7175 
" clip-path="url(#pf3c7c3bc21)" style="fill: none; stroke: #9467bd; stroke-width: 2; stroke-linecap: square"/>
    <defs>
     <path id="mfe6c16f480" d="M 0 3 
C 0.795609 3 1.55874 2.683901 2.12132 2.12132 
C 2.683901 1.55874 3 0.795609 3 0 
C 3 -0.795609 2.683901 -1.55874 2.12132 -2.12132 
C 1.55874 -2.683901 0.795609 -3 0 -3 
C -0.795609 -3 -1.55874 -2.683901 -2.12132 -2.12132 
C -2.683901 -1.55874 -3 -0.795609 -3 0 
C -3 0.795609 -2.683901 1.55874 -2.12132 2.12132 
C -1.55874 2.683901 -0.795609 3 0 3 
z
" style="stroke: #9467bd"/>
    </defs>
    <g clip-path="url(#pf3c7c3bc21)">
     <use xlink:href="#mfe6c16f480" x="78.088864" y="90.119437" style="fill: #9467bd; stroke: #9467bd"/>
     <use xlink:href="#mfe6c16f480" x="145.725227" y="111.136687" style="fill: #9467bd; stroke: #9467bd"/>
     <use xlink:href="#mfe6c16f480" x="213.361591" y="176.615611" style="fill: #9467bd; stroke: #9467bd"/>
     <use xlink:href="#mfe6c16f480" x="280.997955" y="275.259776" style="fill: #9467bd; stroke: #9467bd"/>
     <use xlink:href="#mfe6c16f480" x="348.634318" y="395.758237" style="fill: #9467bd; stroke: #9467bd"/>
     <use xlink:href="#mfe6c16f480" x="416.270682" y="435.433165" style="fill: #9467bd; stroke: #9467bd"/>
     <use xlink:href="#mfe6c16f480" x="483.907045" y="448.117033" style="fill: #9467bd; stroke: #9467bd"/>
     <use xlink:href="#mfe6c16f480" x="551.543409" y="448.7175" style="fill: #9467bd; stroke: #9467bd"/>
     <use xlink:href="#mfe6c16f480" x="619.179773" y="448.7175" style="fill: #9467bd; stroke: #9467bd"/>
     <use xlink:href="#mfe6c16f480" x="686.816136" y="448.7175" style="fill: #9467bd; stroke: #9467bd"/>
    </g>
   </g>
   <g id="line2d_26">
    <path d="M 78.088864 214.992089 
L 145.725227 234.282531 
L 213.361591 283.429335 
L 280.997955 348.337415 
L 348.634318 410.097491 
L 416.270682 439.314861 
L 483.907045 446.322928 
L 551.543409 448.040134 
L 619.179773 448.655877 
L 686.816136 448.7175 
" clip-path="url(#pf3c7c3bc21)" style="fill: none; stroke: #8c564b; stroke-width: 2; stroke-linecap: square"/>
    <defs>
     <path id="mcf201e2def" d="M 0 3 
C 0.795609 3 1.55874 2.683901 2.12132 2.12132 
C 2.683901 1.55874 3 0.795609 3 0 
C 3 -0.795609 2.683901 -1.55874 2.12132 -2.12132 
C 1.55874 -2.683901 0.795609 -3 0 -3 
C -0.795609 -3 -1.55874 -2.683901 -2.12132 -2.12132 
C -2.683901 -1.55874 -3 -0.795609 -3 0 
C -3 0.795609 -2.683901 1.55874 -2.12132 2.12132 
C -1.55874 2.683901 -0.795609 3 0 3 
z
" style="stroke: #8c564b"/>
    </defs>
    <g clip-path="url(#pf3c7c3bc21)">
     <use xlink:href="#mcf201e2def" x="78.088864" y="214.992089" style="fill: #8c564b; stroke: #8c564b"/>
     <use xlink:href="#mcf201e2def" x="145.725227" y="234.282531" style="fill: #8c564b; stroke: #8c564b"/>
     <use xlink:href="#mcf201e2def" x="213.361591" y="283.429335" style="fill: #8c564b; stroke: #8c564b"/>
     <use xlink:href="#mcf201e2def" x="280.997955" y="348.337415" style="fill: #8c564b; stroke: #8c564b"/>
     <use xlink:href="#mcf201e2def" x="348.634318" y="410.097491" style="fill: #8c564b; stroke: #8c564b"/>
     <use xlink:href="#mcf201e2def" x="416.270682" y="439.314861" style="fill: #8c564b; stroke: #8c564b"/>
     <use xlink:href="#mcf201e2def" x="483.907045" y="446.322928" style="fill: #8c564b; stroke: #8c564b"/>
     <use xlink:href="#mcf201e2def" x="551.543409" y="448.040134" style="fill: #8c564b; stroke: #8c564b"/>
     <use xlink:href="#mcf201e2def" x="619.179773" y="448.655877" style="fill: #8c564b; stroke: #8c564b"/>
     <use xlink:href="#mcf201e2def" x="686.816136" y="448.7175" style="fill: #8c564b; stroke: #8c564b"/>
    </g>
   </g>
   <g id="line2d_27">
    <path d="M 78.088864 59.98311 
L 145.725227 78.033956 
L 213.361591 113.55763 
L 280.997955 194.139098 
L 348.634318 295.379925 
L 416.270682 390.699454 
L 483.907045 428.19447 
L 551.543409 442.255134 
L 619.179773 447.091266 
L 686.816136 448.174741 
" clip-path="url(#pf3c7c3bc21)" style="fill: none; stroke: #e377c2; stroke-width: 2; stroke-linecap: square"/>
    <defs>
     <path id="m3a2f5ee27b" d="M 0 3 
C 0.795609 3 1.55874 2.683901 2.12132 2.12132 
C 2.683901 1.55874 3 0.795609 3 0 
C 3 -0.795609 2.683901 -1.55874 2.12132 -2.12132 
C 1.55874 -2.683901 0.795609 -3 0 -3 
C -0.795609 -3 -1.55874 -2.683901 -2.12132 -2.12132 
C -2.683901 -1.55874 -3 -0.795609 -3 0 
C -3 0.795609 -2.683901 1.55874 -2.12132 2.12132 
C -1.55874 2.683901 -0.795609 3 0 3 
z
" style="stroke: #e377c2"/>
    </defs>
    <g clip-path="url(#pf3c7c3bc21)">
     <use xlink:href="#m3a2f5ee27b" x="78.088864" y="59.98311" style="fill: #e377c2; stroke: #e377c2"/>
     <use xlink:href="#m3a2f5ee27b" x="145.725227" y="78.033956" style="fill: #e377c2; stroke: #e377c2"/>
     <use xlink:href="#m3a2f5ee27b" x="213.361591" y="113.55763" style="fill: #e377c2; stroke: #e377c2"/>
     <use xlink:href="#m3a2f5ee27b" x="280.997955" y="194.139098" style="fill: #e377c2; stroke: #e377c2"/>
     <use xlink:href="#m3a2f5ee27b" x="348.634318" y="295.379925" style="fill: #e377c2; stroke: #e377c2"/>
     <use xlink:href="#m3a2f5ee27b" x="416.270682" y="390.699454" style="fill: #e377c2; stroke: #e377c2"/>
     <use xlink:href="#m3a2f5ee27b" x="483.907045" y="428.19447" style="fill: #e377c2; stroke: #e377c2"/>
     <use xlink:href="#m3a2f5ee27b" x="551.543409" y="442.255134" style="fill: #e377c2; stroke: #e377c2"/>
     <use xlink:href="#m3a2f5ee27b" x="619.179773" y="447.091266" style="fill: #e377c2; stroke: #e377c2"/>
     <use xlink:href="#m3a2f5ee27b" x="686.816136" y="448.174741" style="fill: #e377c2; stroke: #e377c2"/>
    </g>
   </g>
   <g id="line2d_28">
    <path d="M 78.088864 136.743139 
L 145.725227 155.373732 
L 213.361591 187.050357 
L 280.997955 247.552887 
L 348.634318 341.399956 
L 416.270682 412.532528 
L 483.907045 437.049609 
L 551.543409 444.131825 
L 619.179773 444.783939 
L 686.816136 448.7175 
" clip-path="url(#pf3c7c3bc21)" style="fill: none; stroke: #7f7f7f; stroke-width: 2; stroke-linecap: square"/>
    <defs>
     <path id="m5bd4dda09a" d="M 0 3 
C 0.795609 3 1.55874 2.683901 2.12132 2.12132 
C 2.683901 1.55874 3 0.795609 3 0 
C 3 -0.795609 2.683901 -1.55874 2.12132 -2.12132 
C 1.55874 -2.683901 0.795609 -3 0 -3 
C -0.795609 -3 -1.55874 -2.683901 -2.12132 -2.12132 
C -2.683901 -1.55874 -3 -0.795609 -3 0 
C -3 0.795609 -2.683901 1.55874 -2.12132 2.12132 
C -1.55874 2.683901 -0.795609 3 0 3 
z
" style="stroke: #7f7f7f"/>
    </defs>
    <g clip-path="url(#pf3c7c3bc21)">
     <use xlink:href="#m5bd4dda09a" x="78.088864" y="136.743139" style="fill: #7f7f7f; stroke: #7f7f7f"/>
     <use xlink:href="#m5bd4dda09a" x="145.725227" y="155.373732" style="fill: #7f7f7f; stroke: #7f7f7f"/>
     <use xlink:href="#m5bd4dda09a" x="213.361591" y="187.050357" style="fill: #7f7f7f; stroke: #7f7f7f"/>
     <use xlink:href="#m5bd4dda09a" x="280.997955" y="247.552887" style="fill: #7f7f7f; stroke: #7f7f7f"/>
     <use xlink:href="#m5bd4dda09a" x="348.634318" y="341.399956" style="fill: #7f7f7f; stroke: #7f7f7f"/>
     <use xlink:href="#m5bd4dda09a" x="416.270682" y="412.532528" style="fill: #7f7f7f; stroke: #7f7f7f"/>
     <use xlink:href="#m5bd4dda09a" x="483.907045" y="437.049609" style="fill: #7f7f7f; stroke: #7f7f7f"/>
     <use xlink:href="#m5bd4dda09a" x="551.543409" y="444.131825" style="fill: #7f7f7f; stroke: #7f7f7f"/>
     <use xlink:href="#m5bd4dda09a" x="619.179773" y="444.783939" style="fill: #7f7f7f; stroke: #7f7f7f"/>
     <use xlink:href="#m5bd4dda09a" x="686.816136" y="448.7175" style="fill: #7f7f7f; stroke: #7f7f7f"/>
    </g>
   </g>
   <g id="line2d_29">
    <path d="M 78.088864 448.7175 
L 145.725227 448.7175 
L 213.361591 448.7175 
L 280.997955 448.7175 
L 348.634318 448.7175 
L 416.270682 448.7175 
L 483.907045 448.7175 
L 551.543409 448.7175 
L 619.179773 448.7175 
L 686.816136 448.7175 
" clip-path="url(#pf3c7c3bc21)" style="fill: none; stroke: #bcbd22; stroke-width: 2; stroke-linecap: square"/>
    <defs>
     <path id="mcedfbadf05" d="M 0 3 
C 0.795609 3 1.55874 2.683901 2.12132 2.12132 
C 2.683901 1.55874 3 0.795609 3 0 
C 3 -0.795609 2.683901 -1.55874 2.12132 -2.12132 
C 1.55874 -2.683901 0.795609 -3 0 -3 
C -0.795609 -3 -1.55874 -2.683901 -2.12132 -2.12132 
C -2.683901 -1.55874 -3 -0.795609 -3 0 
C -3 0.795609 -2.683901 1.55874 -2.12132 2.12132 
C -1.55874 2.683901 -0.795609 3 0 3 
z
" style="stroke: #bcbd22"/>
    </defs>
    <g clip-path="url(#pf3c7c3bc21)">
     <use xlink:href="#mcedfbadf05" x="78.088864" y="448.7175" style="fill: #bcbd22; stroke: #bcbd22"/>
     <use xlink:href="#mcedfbadf05" x="145.725227" y="448.7175" style="fill: #bcbd22; stroke: #bcbd22"/>
     <use xlink:href="#mcedfbadf05" x="213.361591" y="448.7175" style="fill: #bcbd22; stroke: #bcbd22"/>
     <use xlink:href="#mcedfbadf05" x="280.997955" y="448.7175" style="fill: #bcbd22; stroke: #bcbd22"/>
     <use xlink:href="#mcedfbadf05" x="348.634318" y="448.7175" style="fill: #bcbd22; stroke: #bcbd22"/>
     <use xlink:href="#mcedfbadf05" x="416.270682" y="448.7175" style="fill: #bcbd22; stroke: #bcbd22"/>
     <use xlink:href="#mcedfbadf05" x="483.907045" y="448.7175" style="fill: #bcbd22; stroke: #bcbd22"/>
     <use xlink:href="#mcedfbadf05" x="551.543409" y="448.7175" style="fill: #bcbd22; stroke: #bcbd22"/>
     <use xlink:href="#mcedfbadf05" x="619.179773" y="448.7175" style="fill: #bcbd22; stroke: #bcbd22"/>
     <use xlink:href="#mcedfbadf05" x="686.816136" y="448.7175" style="fill: #bcbd22; stroke: #bcbd22"/>
    </g>
   </g>
   <g id="line2d_30">
    <path d="M 78.088864 123.960177 
L 145.725227 146.181221 
L 213.361591 205.068915 
L 280.997955 323.346896 
L 348.634318 433.323526 
L 416.270682 448.01984 
L 483.907045 448.7175 
L 551.543409 448.7175 
L 619.179773 448.7175 
L 686.816136 448.7175 
" clip-path="url(#pf3c7c3bc21)" style="fill: none; stroke: #17becf; stroke-width: 2; stroke-linecap: square"/>
    <defs>
     <path id="m333b7b4976" d="M 0 3 
C 0.795609 3 1.55874 2.683901 2.12132 2.12132 
C 2.683901 1.55874 3 0.795609 3 0 
C 3 -0.795609 2.683901 -1.55874 2.12132 -2.12132 
C 1.55874 -2.683901 0.795609 -3 0 -3 
C -0.795609 -3 -1.55874 -2.683901 -2.12132 -2.12132 
C -2.683901 -1.55874 -3 -0.795609 -3 0 
C -3 0.795609 -2.683901 1.55874 -2.12132 2.12132 
C -1.55874 2.683901 -0.795609 3 0 3 
z
" style="stroke: #17becf"/>
    </defs>
    <g clip-path="url(#pf3c7c3bc21)">
     <use xlink:href="#m333b7b4976" x="78.088864" y="123.960177" style="fill: #17becf; stroke: #17becf"/>
     <use xlink:href="#m333b7b4976" x="145.725227" y="146.181221" style="fill: #17becf; stroke: #17becf"/>
     <use xlink:href="#m333b7b4976" x="213.361591" y="205.068915" style="fill: #17becf; stroke: #17becf"/>
     <use xlink:href="#m333b7b4976" x="280.997955" y="323.346896" style="fill: #17becf; stroke: #17becf"/>
     <use xlink:href="#m333b7b4976" x="348.634318" y="433.323526" style="fill: #17becf; stroke: #17becf"/>
     <use xlink:href="#m333b7b4976" x="416.270682" y="448.01984" style="fill: #17becf; stroke: #17becf"/>
     <use xlink:href="#m333b7b4976" x="483.907045" y="448.7175" style="fill: #17becf; stroke: #17becf"/>
     <use xlink:href="#m333b7b4976" x="551.543409" y="448.7175" style="fill: #17becf; stroke: #17becf"/>
     <use xlink:href="#m333b7b4976" x="619.179773" y="448.7175" style="fill: #17becf; stroke: #17becf"/>
     <use xlink:href="#m333b7b4976" x="686.816136" y="448.7175" style="fill: #17becf; stroke: #17becf"/>
    </g>
   </g>
   <g id="patch_3">
    <path d="M 47.6525 468.8775 
L 47.6525 25.3575 
" style="fill: none; stroke: #000000; stroke-width: 0.8; stroke-linejoin: miter; stroke-linecap: square"/>
   </g>
   <g id="patch_4">
    <path d="M 717.2525 468.8775 
L 717.2525 25.3575 
" style="fill: none; stroke: #000000; stroke-width: 0.8; stroke-linejoin: miter; stroke-linecap: square"/>
   </g>
   <g id="patch_5">
    <path d="M 47.6525 468.8775 
L 717.2525 468.8775 
" style="fill: none; stroke: #000000; stroke-width: 0.8; stroke-linejoin: miter; stroke-linecap: square"/>
   </g>
   <g id="patch_6">
    <path d="M 47.6525 25.3575 
L 717.2525 25.3575 
" style="fill: none; stroke: #000000; stroke-width: 0.8; stroke-linejoin: miter; stroke-linecap: square"/>
   </g>
   <g id="text_13">
    <!-- Combined F1 Scores vs Gaussian Blur Sigma (Threshold 0.5) -->
    <g transform="translate(140.06875 19.3575) scale(0.16 -0.16)">
     <defs>
      <path id="DejaVuSans-43" d="M 4122 4306 
L 4122 3641 
Q 3803 3938 3442 4084 
Q 3081 4231 2675 4231 
Q 1875 4231 1450 3742 
Q 1025 3253 1025 2328 
Q 1025 1406 1450 917 
Q 1875 428 2675 428 
Q 3081 428 3442 575 
Q 3803 722 4122 1019 
L 4122 359 
Q 3791 134 3420 21 
Q 3050 -91 2638 -91 
Q 1578 -91 968 557 
Q 359 1206 359 2328 
Q 359 3453 968 4101 
Q 1578 4750 2638 4750 
Q 3056 4750 3426 4639 
Q 3797 4528 4122 4306 
z
" transform="scale(0.015625)"/>
      <path id="DejaVuSans-62" d="M 3116 1747 
Q 3116 2381 2855 2742 
Q 2594 3103 2138 3103 
Q 1681 3103 1420 2742 
Q 1159 2381 1159 1747 
Q 1159 1113 1420 752 
Q 1681 391 2138 391 
Q 2594 391 2855 752 
Q 3116 1113 3116 1747 
z
M 1159 2969 
Q 1341 3281 1617 3432 
Q 1894 3584 2278 3584 
Q 2916 3584 3314 3078 
Q 3713 2572 3713 1747 
Q 3713 922 3314 415 
Q 2916 -91 2278 -91 
Q 1894 -91 1617 61 
Q 1341 213 1159 525 
L 1159 0 
L 581 0 
L 581 4863 
L 1159 4863 
L 1159 2969 
z
" transform="scale(0.015625)"/>
      <path id="DejaVuSans-76" d="M 191 3500 
L 800 3500 
L 1894 563 
L 2988 3500 
L 3597 3500 
L 2284 0 
L 1503 0 
L 191 3500 
z
" transform="scale(0.015625)"/>
      <path id="DejaVuSans-54" d="M -19 4666 
L 3928 4666 
L 3928 4134 
L 2272 4134 
L 2272 0 
L 1638 0 
L 1638 4134 
L -19 4134 
L -19 4666 
z
" transform="scale(0.015625)"/>
      <path id="DejaVuSans-68" d="M 3513 2113 
L 3513 0 
L 2938 0 
L 2938 2094 
Q 2938 2591 2744 2837 
Q 2550 3084 2163 3084 
Q 1697 3084 1428 2787 
Q 1159 2491 1159 1978 
L 1159 0 
L 581 0 
L 581 4863 
L 1159 4863 
L 1159 2956 
Q 1366 3272 1645 3428 
Q 1925 3584 2291 3584 
Q 2894 3584 3203 3211 
Q 3513 2838 3513 2113 
z
" transform="scale(0.015625)"/>
      <path id="DejaVuSans-35" d="M 691 4666 
L 3169 4666 
L 3169 4134 
L 1269 4134 
L 1269 2991 
Q 1406 3038 1543 3061 
Q 1681 3084 1819 3084 
Q 2600 3084 3056 2656 
Q 3513 2228 3513 1497 
Q 3513 744 3044 326 
Q 2575 -91 1722 -91 
Q 1428 -91 1123 -41 
Q 819 9 494 109 
L 494 744 
Q 775 591 1075 516 
Q 1375 441 1709 441 
Q 2250 441 2565 725 
Q 2881 1009 2881 1497 
Q 2881 1984 2565 2268 
Q 2250 2553 1709 2553 
Q 1456 2553 1204 2497 
Q 953 2441 691 2322 
L 691 4666 
z
" transform="scale(0.015625)"/>
     </defs>
     <use xlink:href="#DejaVuSans-43"/>
     <use xlink:href="#DejaVuSans-6f" x="69.824219"/>
     <use xlink:href="#DejaVuSans-6d" x="131.005859"/>
     <use xlink:href="#DejaVuSans-62" x="228.417969"/>
     <use xlink:href="#DejaVuSans-69" x="291.894531"/>
     <use xlink:href="#DejaVuSans-6e" x="319.677734"/>
     <use xlink:href="#DejaVuSans-65" x="383.056641"/>
     <use xlink:href="#DejaVuSans-64" x="444.580078"/>
     <use xlink:href="#DejaVuSans-20" x="508.056641"/>
     <use xlink:href="#DejaVuSans-46" x="539.84375"/>
     <use xlink:href="#DejaVuSans-31" x="597.363281"/>
     <use xlink:href="#DejaVuSans-20" x="660.986328"/>
     <use xlink:href="#DejaVuSans-53" x="692.773438"/>
     <use xlink:href="#DejaVuSans-63" x="756.25"/>
     <use xlink:href="#DejaVuSans-6f" x="811.230469"/>
     <use xlink:href="#DejaVuSans-72" x="872.412109"/>
     <use xlink:href="#DejaVuSans-65" x="911.275391"/>
     <use xlink:href="#DejaVuSans-73" x="972.798828"/>
     <use xlink:href="#DejaVuSans-20" x="1024.898438"/>
     <use xlink:href="#DejaVuSans-76" x="1056.685547"/>
     <use xlink:href="#DejaVuSans-73" x="1115.865234"/>
     <use xlink:href="#DejaVuSans-20" x="1167.964844"/>
     <use xlink:href="#DejaVuSans-47" x="1199.751953"/>
     <use xlink:href="#DejaVuSans-61" x="1277.242188"/>
     <use xlink:href="#DejaVuSans-75" x="1338.521484"/>
     <use xlink:href="#DejaVuSans-73" x="1401.900391"/>
     <use xlink:href="#DejaVuSans-73" x="1454"/>
     <use xlink:href="#DejaVuSans-69" x="1506.099609"/>
     <use xlink:href="#DejaVuSans-61" x="1533.882812"/>
     <use xlink:href="#DejaVuSans-6e" x="1595.162109"/>
     <use xlink:href="#DejaVuSans-20" x="1658.541016"/>
     <use xlink:href="#DejaVuSans-42" x="1690.328125"/>
     <use xlink:href="#DejaVuSans-6c" x="1758.931641"/>
     <use xlink:href="#DejaVuSans-75" x="1786.714844"/>
     <use xlink:href="#DejaVuSans-72" x="1850.09375"/>
     <use xlink:href="#DejaVuSans-20" x="1891.207031"/>
     <use xlink:href="#DejaVuSans-53" x="1922.994141"/>
     <use xlink:href="#DejaVuSans-69" x="1986.470703"/>
     <use xlink:href="#DejaVuSans-67" x="2014.253906"/>
     <use xlink:href="#DejaVuSans-6d" x="2077.730469"/>
     <use xlink:href="#DejaVuSans-61" x="2175.142578"/>
     <use xlink:href="#DejaVuSans-20" x="2236.421875"/>
     <use xlink:href="#DejaVuSans-28" x="2268.208984"/>
     <use xlink:href="#DejaVuSans-54" x="2307.222656"/>
     <use xlink:href="#DejaVuSans-68" x="2368.306641"/>
     <use xlink:href="#DejaVuSans-72" x="2431.685547"/>
     <use xlink:href="#DejaVuSans-65" x="2470.548828"/>
     <use xlink:href="#DejaVuSans-73" x="2532.072266"/>
     <use xlink:href="#DejaVuSans-68" x="2584.171875"/>
     <use xlink:href="#DejaVuSans-6f" x="2647.550781"/>
     <use xlink:href="#DejaVuSans-6c" x="2708.732422"/>
     <use xlink:href="#DejaVuSans-64" x="2736.515625"/>
     <use xlink:href="#DejaVuSans-20" x="2799.992188"/>
     <use xlink:href="#DejaVuSans-30" x="2831.779297"/>
     <use xlink:href="#DejaVuSans-2e" x="2895.402344"/>
     <use xlink:href="#DejaVuSans-35" x="2927.189453"/>
     <use xlink:href="#DejaVuSans-29" x="2990.8125"/>
    </g>
   </g>
   <g id="legend_1">
    <g id="patch_7">
     <path d="M 732.6445 175.13875 
L 809.791375 175.13875 
Q 811.791375 175.13875 811.791375 173.13875 
L 811.791375 27.3575 
Q 811.791375 25.3575 809.791375 25.3575 
L 732.6445 25.3575 
Q 730.6445 25.3575 730.6445 27.3575 
L 730.6445 173.13875 
Q 730.6445 175.13875 732.6445 175.13875 
z
" style="fill: #ffffff; opacity: 0.8; stroke: #cccccc; stroke-linejoin: miter"/>
    </g>
    <g id="line2d_31">
     <path d="M 734.6445 33.455938 
L 744.6445 33.455938 
L 754.6445 33.455938 
" style="fill: none; stroke: #1f77b4; stroke-width: 2; stroke-linecap: square"/>
     <g>
      <use xlink:href="#mc0d6a4d1ab" x="744.6445" y="33.455938" style="fill: #1f77b4; stroke: #1f77b4"/>
     </g>
    </g>
    <g id="text_14">
     <!-- Overall -->
     <g transform="translate(762.6445 36.955938) scale(0.1 -0.1)">
      <defs>
       <path id="DejaVuSans-4f" d="M 2522 4238 
Q 1834 4238 1429 3725 
Q 1025 3213 1025 2328 
Q 1025 1447 1429 934 
Q 1834 422 2522 422 
Q 3209 422 3611 934 
Q 4013 1447 4013 2328 
Q 4013 3213 3611 3725 
Q 3209 4238 2522 4238 
z
M 2522 4750 
Q 3503 4750 4090 4092 
Q 4678 3434 4678 2328 
Q 4678 1225 4090 567 
Q 3503 -91 2522 -91 
Q 1538 -91 948 565 
Q 359 1222 359 2328 
Q 359 3434 948 4092 
Q 1538 4750 2522 4750 
z
" transform="scale(0.015625)"/>
      </defs>
      <use xlink:href="#DejaVuSans-4f"/>
      <use xlink:href="#DejaVuSans-76" x="78.710938"/>
      <use xlink:href="#DejaVuSans-65" x="137.890625"/>
      <use xlink:href="#DejaVuSans-72" x="199.414062"/>
      <use xlink:href="#DejaVuSans-61" x="240.527344"/>
      <use xlink:href="#DejaVuSans-6c" x="301.806641"/>
      <use xlink:href="#DejaVuSans-6c" x="329.589844"/>
     </g>
    </g>
    <g id="line2d_32">
     <path d="M 734.6445 48.134063 
L 744.6445 48.134063 
L 754.6445 48.134063 
" style="fill: none; stroke: #ff7f0e; stroke-width: 2; stroke-linecap: square"/>
     <g>
      <use xlink:href="#m7326d1f5db" x="744.6445" y="48.134063" style="fill: #ff7f0e; stroke: #ff7f0e"/>
     </g>
    </g>
    <g id="text_15">
     <!-- Normal -->
     <g transform="translate(762.6445 51.634063) scale(0.1 -0.1)">
      <defs>
       <path id="DejaVuSans-4e" d="M 628 4666 
L 1478 4666 
L 3547 763 
L 3547 4666 
L 4159 4666 
L 4159 0 
L 3309 0 
L 1241 3903 
L 1241 0 
L 628 0 
L 628 4666 
z
" transform="scale(0.015625)"/>
      </defs>
      <use xlink:href="#DejaVuSans-4e"/>
      <use xlink:href="#DejaVuSans-6f" x="74.804688"/>
      <use xlink:href="#DejaVuSans-72" x="135.986328"/>
      <use xlink:href="#DejaVuSans-6d" x="175.349609"/>
      <use xlink:href="#DejaVuSans-61" x="272.761719"/>
      <use xlink:href="#DejaVuSans-6c" x="334.041016"/>
     </g>
    </g>
    <g id="line2d_33">
     <path d="M 734.6445 62.812188 
L 744.6445 62.812188 
L 754.6445 62.812188 
" style="fill: none; stroke: #2ca02c; stroke-width: 2; stroke-linecap: square"/>
     <g>
      <use xlink:href="#m31d8fa7fb5" x="744.6445" y="62.812188" style="fill: #2ca02c; stroke: #2ca02c"/>
     </g>
    </g>
    <g id="text_16">
     <!-- Crowd -->
     <g transform="translate(762.6445 66.312188) scale(0.1 -0.1)">
      <defs>
       <path id="DejaVuSans-77" d="M 269 3500 
L 844 3500 
L 1563 769 
L 2278 3500 
L 2956 3500 
L 3675 769 
L 4391 3500 
L 4966 3500 
L 4050 0 
L 3372 0 
L 2619 2869 
L 1863 0 
L 1184 0 
L 269 3500 
z
" transform="scale(0.015625)"/>
      </defs>
      <use xlink:href="#DejaVuSans-43"/>
      <use xlink:href="#DejaVuSans-72" x="69.824219"/>
      <use xlink:href="#DejaVuSans-6f" x="108.6875"/>
      <use xlink:href="#DejaVuSans-77" x="169.869141"/>
      <use xlink:href="#DejaVuSans-64" x="251.65625"/>
     </g>
    </g>
    <g id="line2d_34">
     <path d="M 734.6445 77.490313 
L 744.6445 77.490313 
L 754.6445 77.490313 
" style="fill: none; stroke: #d62728; stroke-width: 2; stroke-linecap: square"/>
     <g>
      <use xlink:href="#m04e51f9aa2" x="744.6445" y="77.490313" style="fill: #d62728; stroke: #d62728"/>
     </g>
    </g>
    <g id="text_17">
     <!-- Highlight -->
     <g transform="translate(762.6445 80.990313) scale(0.1 -0.1)">
      <defs>
       <path id="DejaVuSans-48" d="M 628 4666 
L 1259 4666 
L 1259 2753 
L 3553 2753 
L 3553 4666 
L 4184 4666 
L 4184 0 
L 3553 0 
L 3553 2222 
L 1259 2222 
L 1259 0 
L 628 0 
L 628 4666 
z
" transform="scale(0.015625)"/>
      </defs>
      <use xlink:href="#DejaVuSans-48"/>
      <use xlink:href="#DejaVuSans-69" x="75.195312"/>
      <use xlink:href="#DejaVuSans-67" x="102.978516"/>
      <use xlink:href="#DejaVuSans-68" x="166.455078"/>
      <use xlink:href="#DejaVuSans-6c" x="229.833984"/>
      <use xlink:href="#DejaVuSans-69" x="257.617188"/>
      <use xlink:href="#DejaVuSans-67" x="285.400391"/>
      <use xlink:href="#DejaVuSans-68" x="348.876953"/>
      <use xlink:href="#DejaVuSans-74" x="412.255859"/>
     </g>
    </g>
    <g id="line2d_35">
     <path d="M 734.6445 92.168438 
L 744.6445 92.168438 
L 754.6445 92.168438 
" style="fill: none; stroke: #9467bd; stroke-width: 2; stroke-linecap: square"/>
     <g>
      <use xlink:href="#mfe6c16f480" x="744.6445" y="92.168438" style="fill: #9467bd; stroke: #9467bd"/>
     </g>
    </g>
    <g id="text_18">
     <!-- Shadow -->
     <g transform="translate(762.6445 95.668438) scale(0.1 -0.1)">
      <use xlink:href="#DejaVuSans-53"/>
      <use xlink:href="#DejaVuSans-68" x="63.476562"/>
      <use xlink:href="#DejaVuSans-61" x="126.855469"/>
      <use xlink:href="#DejaVuSans-64" x="188.134766"/>
      <use xlink:href="#DejaVuSans-6f" x="251.611328"/>
      <use xlink:href="#DejaVuSans-77" x="312.792969"/>
     </g>
    </g>
    <g id="line2d_36">
     <path d="M 734.6445 106.846563 
L 744.6445 106.846563 
L 754.6445 106.846563 
" style="fill: none; stroke: #8c564b; stroke-width: 2; stroke-linecap: square"/>
     <g>
      <use xlink:href="#mcf201e2def" x="744.6445" y="106.846563" style="fill: #8c564b; stroke: #8c564b"/>
     </g>
    </g>
    <g id="text_19">
     <!-- No Line -->
     <g transform="translate(762.6445 110.346563) scale(0.1 -0.1)">
      <defs>
       <path id="DejaVuSans-4c" d="M 628 4666 
L 1259 4666 
L 1259 531 
L 3531 531 
L 3531 0 
L 628 0 
L 628 4666 
z
" transform="scale(0.015625)"/>
      </defs>
      <use xlink:href="#DejaVuSans-4e"/>
      <use xlink:href="#DejaVuSans-6f" x="74.804688"/>
      <use xlink:href="#DejaVuSans-20" x="135.986328"/>
      <use xlink:href="#DejaVuSans-4c" x="167.773438"/>
      <use xlink:href="#DejaVuSans-69" x="223.486328"/>
      <use xlink:href="#DejaVuSans-6e" x="251.269531"/>
      <use xlink:href="#DejaVuSans-65" x="314.648438"/>
     </g>
    </g>
    <g id="line2d_37">
     <path d="M 734.6445 121.524688 
L 744.6445 121.524688 
L 754.6445 121.524688 
" style="fill: none; stroke: #e377c2; stroke-width: 2; stroke-linecap: square"/>
     <g>
      <use xlink:href="#m3a2f5ee27b" x="744.6445" y="121.524688" style="fill: #e377c2; stroke: #e377c2"/>
     </g>
    </g>
    <g id="text_20">
     <!-- Arrow -->
     <g transform="translate(762.6445 125.024688) scale(0.1 -0.1)">
      <defs>
       <path id="DejaVuSans-41" d="M 2188 4044 
L 1331 1722 
L 3047 1722 
L 2188 4044 
z
M 1831 4666 
L 2547 4666 
L 4325 0 
L 3669 0 
L 3244 1197 
L 1141 1197 
L 716 0 
L 50 0 
L 1831 4666 
z
" transform="scale(0.015625)"/>
      </defs>
      <use xlink:href="#DejaVuSans-41"/>
      <use xlink:href="#DejaVuSans-72" x="68.408203"/>
      <use xlink:href="#DejaVuSans-72" x="107.771484"/>
      <use xlink:href="#DejaVuSans-6f" x="146.634766"/>
      <use xlink:href="#DejaVuSans-77" x="207.816406"/>
     </g>
    </g>
    <g id="line2d_38">
     <path d="M 734.6445 136.202812 
L 744.6445 136.202812 
L 754.6445 136.202812 
" style="fill: none; stroke: #7f7f7f; stroke-width: 2; stroke-linecap: square"/>
     <g>
      <use xlink:href="#m5bd4dda09a" x="744.6445" y="136.202812" style="fill: #7f7f7f; stroke: #7f7f7f"/>
     </g>
    </g>
    <g id="text_21">
     <!-- Curve -->
     <g transform="translate(762.6445 139.702812) scale(0.1 -0.1)">
      <use xlink:href="#DejaVuSans-43"/>
      <use xlink:href="#DejaVuSans-75" x="69.824219"/>
      <use xlink:href="#DejaVuSans-72" x="133.203125"/>
      <use xlink:href="#DejaVuSans-76" x="174.316406"/>
      <use xlink:href="#DejaVuSans-65" x="233.496094"/>
     </g>
    </g>
    <g id="line2d_39">
     <path d="M 734.6445 150.880938 
L 744.6445 150.880938 
L 754.6445 150.880938 
" style="fill: none; stroke: #bcbd22; stroke-width: 2; stroke-linecap: square"/>
     <g>
      <use xlink:href="#mcedfbadf05" x="744.6445" y="150.880938" style="fill: #bcbd22; stroke: #bcbd22"/>
     </g>
    </g>
    <g id="text_22">
     <!-- Cross -->
     <g transform="translate(762.6445 154.380938) scale(0.1 -0.1)">
      <use xlink:href="#DejaVuSans-43"/>
      <use xlink:href="#DejaVuSans-72" x="69.824219"/>
      <use xlink:href="#DejaVuSans-6f" x="108.6875"/>
      <use xlink:href="#DejaVuSans-73" x="169.869141"/>
      <use xlink:href="#DejaVuSans-73" x="221.96875"/>
     </g>
    </g>
    <g id="line2d_40">
     <path d="M 734.6445 165.559062 
L 744.6445 165.559062 
L 754.6445 165.559062 
" style="fill: none; stroke: #17becf; stroke-width: 2; stroke-linecap: square"/>
     <g>
      <use xlink:href="#m333b7b4976" x="744.6445" y="165.559062" style="fill: #17becf; stroke: #17becf"/>
     </g>
    </g>
    <g id="text_23">
     <!-- Night -->
     <g transform="translate(762.6445 169.059062) scale(0.1 -0.1)">
      <use xlink:href="#DejaVuSans-4e"/>
      <use xlink:href="#DejaVuSans-69" x="74.804688"/>
      <use xlink:href="#DejaVuSans-67" x="102.587891"/>
      <use xlink:href="#DejaVuSans-68" x="166.064453"/>
      <use xlink:href="#DejaVuSans-74" x="229.443359"/>
     </g>
    </g>
   </g>
  </g>
 </g>
 <defs>
  <clipPath id="pf3c7c3bc21">
   <rect x="47.6525" y="25.3575" width="669.6" height="443.52"/>
  </clipPath>
 </defs>
</svg>
